<svg width="14" height="14" viewBox="0 0 14 14" fill="none" xmlns="http://www.w3.org/2000/svg">
<path fill-rule="evenodd" clip-rule="evenodd" d="M13.5285 0.224858C13.8214 0.517751 13.8214 0.992625 13.5285 1.28552L1.53643 13.2776C1.24354 13.5705 0.768667 13.5705 0.475773 13.2776C0.18288 12.9847 0.18288 12.5098 0.475773 12.2169L12.4679 0.224858C12.7608 -0.0680353 13.2356 -0.0680353 13.5285 0.224858Z" fill="white"/>
<path fill-rule="evenodd" clip-rule="evenodd" d="M0.469725 0.219615C0.762649 -0.073248 1.23752 -0.0731986 1.53039 0.219725L13.5325 12.2243C13.8253 12.5172 13.8253 12.9921 13.5324 13.285C13.2394 13.5778 12.7646 13.5778 12.4717 13.2849L0.469615 1.28027C0.176752 0.987351 0.176801 0.512477 0.469725 0.219615Z" fill="white"/>
</svg>
